<svg width="4247" height="1926" xmlns="http://www.w3.org/2000/svg" xmlns:xlink="http://www.w3.org/1999/xlink" xml:space="preserve" overflow="hidden"><g transform="translate(-67 -423)"><path d="M914.5 739.001C914.5 710.558 937.558 687.5 966.001 687.5L1389 687.5C1417.44 687.5 1440.5 710.558 1440.5 739.001L1440.5 944.999C1440.5 973.442 1417.44 996.5 1389 996.5L966.001 996.5C937.558 996.5 914.5 973.442 914.5 944.999Z" stroke="#6893A0" stroke-width="4.58333" stroke-miterlimit="8" stroke-opacity="0" fill="#6893A0" fill-rule="evenodd" fill-opacity="0.6"/><text fill="#FFFFFF" font-family="Arial,Arial_MSFontService,sans-serif" font-weight="700" font-size="46" transform="matrix(1 0 0 1 992.777 832)">Task Information </text><text fill="#FFFFFF" font-family="Arial,Arial_MSFontService,sans-serif" font-weight="700" font-size="46" transform="matrix(1 0 0 1 1080.71 887)">Retrieval</text><path d="M2238.5 738.001C2238.5 709.558 2261.56 686.5 2290 686.5L2713 686.5C2741.44 686.5 2764.5 709.558 2764.5 738.001L2764.5 943.999C2764.5 972.442 2741.44 995.5 2713 995.5L2290 995.5C2261.56 995.5 2238.5 972.442 2238.5 943.999Z" stroke="#6893A0" stroke-width="4.58333" stroke-miterlimit="8" stroke-opacity="0" fill="#2E75B6" fill-rule="evenodd" fill-opacity="0.6"/><text fill="#FFFFFF" font-family="Arial,Arial_MSFontService,sans-serif" font-weight="700" font-size="46" transform="matrix(1 0 0 1 2327.1 831)">Language</text><text fill="#FFFFFF" font-family="Arial,Arial_MSFontService,sans-serif" font-weight="700" font-size="46" transform="matrix(1 0 0 1 2543.09 831)">-</text><text fill="#FFFFFF" font-family="Arial,Arial_MSFontService,sans-serif" font-weight="700" font-size="46" transform="matrix(1 0 0 1 2558.56 831)">Level</text><text fill="#FFFFFF" font-family="Arial,Arial_MSFontService,sans-serif" font-weight="700" font-size="46" transform="matrix(1 0 0 1 2384.1 886)">Reasoning</text><path d="M2914.5 739.001C2914.5 710.558 2937.56 687.5 2966 687.5L3390 687.5C3418.44 687.5 3441.5 710.558 3441.5 739.001L3441.5 944.999C3441.5 973.442 3418.44 996.5 3390 996.5L2966 996.5C2937.56 996.5 2914.5 973.442 2914.5 944.999Z" stroke="#6893A0" stroke-width="4.58333" stroke-miterlimit="8" stroke-opacity="0" fill="#548235" fill-rule="evenodd" fill-opacity="0.6"/><text fill="#FFFFFF" font-family="Arial,Arial_MSFontService,sans-serif" font-weight="700" font-size="46" transform="matrix(1 0 0 1 3009.99 832)">Symbolic</text><text fill="#FFFFFF" font-family="Arial,Arial_MSFontService,sans-serif" font-weight="700" font-size="46" transform="matrix(1 0 0 1 3212.81 832)">-</text><text fill="#FFFFFF" font-family="Arial,Arial_MSFontService,sans-serif" font-weight="700" font-size="46" transform="matrix(1 0 0 1 3228.28 832)">Level </text><text fill="#FFFFFF" font-family="Arial,Arial_MSFontService,sans-serif" font-weight="700" font-size="46" transform="matrix(1 0 0 1 3080.76 887)">Planning</text><path d="M3785.5 739.501C3785.5 711.334 3808.33 688.5 3836.5 688.5L4260.5 688.5C4288.67 688.5 4311.5 711.334 4311.5 739.501L4311.5 943.499C4311.5 971.666 4288.67 994.5 4260.5 994.5L3836.5 994.5C3808.33 994.5 3785.5 971.666 3785.5 943.499Z" stroke="#6893A0" stroke-width="4.58333" stroke-miterlimit="8" stroke-opacity="0" fill="#C55A11" fill-rule="evenodd" fill-opacity="0.6"/><text fill="#FFFFFF" font-family="Arial,Arial_MSFontService,sans-serif" font-weight="700" font-size="46" transform="matrix(1 0 0 1 3846.32 859)">Logical Evaluation</text><rect x="71.5" y="687.5" width="693" height="309" stroke="#7C7C7C" stroke-width="4.58333" stroke-miterlimit="8" fill="#4472C4" fill-opacity="0"/><text fill="#7C7C7C" font-family="Arial,Arial_MSFontService,sans-serif" font-weight="700" font-size="50" transform="matrix(1 0 0 1 160.894 753)">Language Instruction</text><text fill="#7C7C7C" font-family="Arial,Arial_MSFontService,sans-serif" font-weight="400" font-size="48" transform="matrix(1 0 0 1 103.9 811)">Clean the rag … in the tub. </text><text fill="#7C7C7C" font-family="Arial,Arial_MSFontService,sans-serif" font-weight="400" font-size="48" transform="matrix(1 0 0 1 103.9 869)">turn to your right … head to </text><text fill="#7C7C7C" font-family="Arial,Arial_MSFontService,sans-serif" font-weight="400" font-size="48" transform="matrix(1 0 0 1 103.9 927)">the sink … rag in the tub. </text><path d="M0.229579-2.28014 7.45545-1.55259 14.7991 0.619694 18.5958 2.46039 16.5963 6.58459 12.9689 4.82597 13.3186 4.96141 6.36172 2.90353 6.78218 2.98613-0.229579 2.28014ZM30.6006 10.2236 35.548 14.4893 41.8894 21.2152 43.7425 23.5761 40.1372 26.406 38.3481 24.1268 38.4834 24.2839 32.2944 17.7197 32.4653 17.8832 27.6077 13.6948ZM51.871 34.8816 53.4447 37.2602 58.5623 46.4014 60.8387 51.2256 56.6937 53.1815 54.4512 48.4294 54.5241 48.5709 49.487 39.5733 49.5754 39.7183 48.0486 37.4106ZM66.2563 64.0212 67.2225 66.4807 70.6596 77.2429 71.793 81.7959 67.3454 82.9031 66.23 78.4226 66.2708 78.5662 62.8792 67.9463 62.9292 68.0871 61.9903 65.6971ZM74.6892 95.385 75.477 99.7724 76.747 111.363 76.8415 113.899 72.2614 114.07 72.1699 111.616 72.1819 111.781 70.9295 100.35 70.952 100.505 70.178 96.1951ZM77.354 127.639 77.6094 134.488 77.5973 134.324 78.8476 145.736 74.2916 146.235 73.0323 134.741 72.7738 127.81ZM81.3714 158.933 83.5492 167.682 83.5085 167.538 86.3432 176.414 81.9771 177.809 79.1197 168.861 76.9238 160.04ZM91.2085 188.945 95.3279 197.675 95.255 197.534 99.4953 205.108 95.4961 207.347 91.2169 199.703 87.0635 190.901ZM106.926 216.239 111.431 221.978 111.296 221.821 117.485 228.385 117.314 228.221 118.84 229.538 115.847 233.009 114.231 231.615 107.89 224.889 103.321 219.069ZM128.679 223.742 149.779 246.104 119.229 249.567Z" fill="#6893A0" transform="matrix(1 0 0 -1 1440.5 841.604)"/><path d="M1440.64 840.213 1447.79 840.653 1455 841.958 1462.08 844.058 1468.97 846.891 1475.62 850.399 1481.98 854.525 1488 859.212 1493.61 864.405 1498.78 870.051 1503.44 876.095 1507.55 882.486 1511.04 889.17 1513.85 896.094 1515.94 903.207 1517.24 910.453 1517.68 917.634 1518.11 924.682 1518.08 924.417 1519.33 931.41 1519.27 931.168 1521.29 938.05 1521.21 937.832 1523.95 944.549 1523.86 944.352 1527.25 950.849 1527.15 950.671 1531.14 956.891 1531.03 956.73 1535.57 962.62 1535.45 962.473 1540.48 967.977 1540.35 967.841 1545.82 972.904 1545.68 972.779 1551.54 977.346 1551.38 977.231 1557.56 981.246 1557.39 981.142 1563.85 984.551 1563.35 984.357 1568.52 985.676 1567.38 990.117 1561.95 988.731 1555.16 985.148 1548.8 981.022 1542.78 976.335 1537.17 971.141 1532 965.496 1527.34 959.451 1523.23 953.061 1519.74 946.377 1516.93 939.452 1514.84 932.34 1513.54 925.094 1513.1 917.913 1512.67 910.865 1512.7 911.13 1511.45 904.137 1511.51 904.379 1509.49 897.496 1509.56 897.715 1506.83 890.998 1506.92 891.195 1503.53 884.698 1503.63 884.876 1499.64 878.655 1499.75 878.817 1495.21 872.927 1495.33 873.074 1490.3 867.57 1490.43 867.706 1484.95 862.643 1485.1 862.768 1479.24 858.201 1479.4 858.316 1473.21 854.3 1473.39 854.405 1466.93 850.996 1467.13 851.088 1460.44 848.341 1460.66 848.419 1453.82 846.388 1454.06 846.446 1447.1 845.187 1447.37 845.219 1440.36 844.787ZM1566.57 973.468 1590.28 993.047 1560.39 1000.26Z" fill="#6893A0"/><path d="M2088.73 593.22 2095.95 593.944 2103.3 596.107 2107.1 597.943 2105.11 602.07 2101.47 600.316 2101.82 600.451 2094.86 598.401 2095.28 598.483 2088.27 597.78ZM2119.11 605.686 2124.04 609.92 2130.39 616.618 2132.28 619.017 2128.68 621.855 2126.85 619.537 2126.99 619.694 2120.8 613.157 2120.97 613.32 2116.13 609.163ZM2140.42 630.311 2141.94 632.599 2147.06 641.703 2149.4 646.648 2145.26 648.611 2142.95 643.738 2143.03 643.879 2137.99 634.919 2138.08 635.064 2136.61 632.847ZM2154.83 659.441 2155.72 661.701 2159.16 672.42 2160.36 677.219 2155.91 678.331 2154.73 673.605 2154.77 673.749 2151.38 663.172 2151.43 663.314 2150.57 661.123ZM2163.25 690.811 2163.98 694.86 2165.25 706.404 2165.36 709.33 2160.78 709.502 2160.67 706.658 2160.68 706.823 2159.43 695.439 2159.45 695.595 2158.74 691.624ZM2165.87 723.071 2166.11 729.435 2166.1 729.27 2167.35 740.654 2167.33 740.498 2167.42 741.002 2162.91 741.815 2162.8 741.233 2161.53 729.689 2161.29 723.242ZM2170.01 754.344 2172.05 762.488 2172.01 762.344 2175.04 771.808 2170.68 773.208 2167.62 763.672 2165.57 755.456ZM2180.01 784.298 2183.83 792.355 2183.75 792.214 2188.37 800.423 2184.37 802.669 2179.72 794.39 2175.87 786.261ZM2195.92 811.471 2199.93 816.556 2199.79 816.399 2205.98 822.936 2205.81 822.773 2207.98 824.635 2204.99 828.112 2202.73 826.173 2196.39 819.475 2192.32 814.309ZM2217.15 818.256 2238.28 840.593 2207.73 844.092Z" fill="#6893A0"/><path d="M0.141823-2.28727 7.28899-1.84411 14.5034-0.529897 21.5839 1.58407 28.4763 4.43675 35.1281 7.96875 41.4871 12.1222 47.5013 16.8406 53.118 22.0686 58.2842 27.7516 62.9462 33.8358 67.0493 40.2678 70.5379 46.9948 73.355 53.9638 75.4421 61.1214 76.7394 68.413 77.1771 75.6404 77.6067 82.7354 77.5755 82.4725 78.8279 89.512 78.7717 89.2719 80.792 96.2005 80.7166 95.9831 83.45 102.745 83.3598 102.549 86.7514 109.089 86.649 108.912 90.644 115.174 90.531 115.013 95.0744 120.942 94.9511 120.794 99.9882 126.335 99.8539 126.199 105.33 131.296 105.183 131.171 111.043 135.768 110.881 135.653 117.07 139.695 116.892 139.59 123.355 143.022 122.851 142.826 128.026 144.157 126.885 148.596 121.446 147.197 114.651 143.589 108.292 139.436 102.278 134.717 96.6611 129.489 91.4949 123.806 86.8329 117.722 82.7298 111.29 79.2412 104.563 76.4242 97.5941 74.3371 90.4364 73.0398 83.1448 72.6021 75.9174 72.1724 68.8224 72.2037 69.0853 70.9513 62.0458 71.0075 62.2859 68.9871 55.3574 69.0625 55.5747 66.3291 48.8127 66.4194 49.0089 63.0278 42.4689 63.1301 42.6463 59.1352 36.3838 59.2481 36.5452 54.7047 30.6157 54.828 30.7634 49.7909 25.2224 49.9252 25.3584 44.4493 20.2614 44.5961 20.387 38.7362 15.7895 38.8976 15.9052 32.7086 11.8628 32.887 11.9682 26.4238 8.53628 26.6221 8.62972 19.9395 5.86386 20.1603 5.94228 13.3131 3.89795 13.558 3.95663 6.60106 2.68933 6.86993 2.72204-0.141823 2.28727ZM126.1 131.946 149.779 151.558 119.882 158.734Z" fill="#6893A0" transform="matrix(1 0 0 -1 2088.5 993.058)"/><path d="M764.5 840.208 891.362 840.209 891.362 844.792 764.5 844.792ZM886.779 828.75 914.279 842.5 886.779 856.25Z" fill="#AFABAB"/><path d="M415.208 687.511 415.208 423.508 2503.36 423.508 2503.36 663.583 2498.78 663.583 2498.78 425.8 2501.07 428.092 417.5 428.092 419.792 425.8 419.792 687.511ZM2514.82 659 2501.07 686.5 2487.32 659Z" fill="#AFABAB"/><path d="M2764.52 839.208 2891.38 840.065 2891.35 844.648 2764.48 843.792ZM2886.87 828.576 2914.28 842.511 2886.69 856.075Z" fill="#2E75B6"/><path d="M3572.52 993.5 3580.04 1004.61 3574.02 1004.61C3581.72 1032.96 3617.42 1053.5 3659.01 1053.5L3659.01 1053.5C3617.42 1053.5 3581.72 1032.96 3574.02 1004.61L3568 1004.61Z" fill="#C55A11" fill-rule="evenodd"/><path d="M3659.01 1053.5C3706.78 1053.5 3745.5 1026.64 3745.5 993.5L3745.5 993.5C3745.5 1026.64 3706.78 1053.5 3659.01 1053.5Z" fill="#9E480E" fill-rule="evenodd"/><path d="M3659.01 1053.5C3706.78 1053.5 3745.5 1026.64 3745.5 993.5L3745.5 993.5C3745.5 1026.64 3706.78 1053.5 3659.01 1053.5L3659.01 1053.5C3617.42 1053.5 3581.72 1032.96 3574.02 1004.61L3568 1004.61 3572.52 993.5 3580.04 1004.61 3574.02 1004.61C3581.72 1032.96 3617.42 1053.5 3659.01 1053.5" stroke="#C55A11" stroke-width="4.58333" stroke-miterlimit="8" fill="none" fill-rule="evenodd"/><rect x="71.5" y="1251.5" width="1020" height="1093" stroke="#6893A0" stroke-width="9.16667" stroke-miterlimit="8" fill="#6893A0" fill-opacity="0.101961"/><text font-family="Arial,Arial_MSFontService,sans-serif" font-weight="700" font-size="41" transform="matrix(1 0 0 1 103.9 1307)">Task Information Retrieval</text><rect x="1144.5" y="1251.5" width="1020" height="1093" stroke="#0070C0" stroke-width="9.16667" stroke-miterlimit="8" fill="#2E75B6" fill-opacity="0.101961"/><text font-family="Arial,Arial_MSFontService,sans-serif" font-weight="700" font-size="41" transform="matrix(1 0 0 1 1176.71 1307)">Language</text><text font-family="Arial,Arial_MSFontService,sans-serif" font-weight="700" font-size="41" transform="matrix(1 0 0 1 1371.5 1307)">-</text><text font-family="Arial,Arial_MSFontService,sans-serif" font-weight="700" font-size="41" transform="matrix(1 0 0 1 1385.25 1307)">Level Reasoning</text><rect x="2217.5" y="1251.5" width="1019" height="1093" stroke="#548235" stroke-width="9.16667" stroke-miterlimit="8" fill="#548235" fill-opacity="0.101961"/><text font-family="Arial,Arial_MSFontService,sans-serif" font-weight="700" font-size="41" transform="matrix(1 0 0 1 2249.52 1307)">Symbolic</text><text font-family="Arial,Arial_MSFontService,sans-serif" font-weight="700" font-size="41" transform="matrix(1 0 0 1 2432.85 1307)">-</text><text font-family="Arial,Arial_MSFontService,sans-serif" font-weight="700" font-size="41" transform="matrix(1 0 0 1 2446.6 1307)">Level Planning</text><rect x="3289.5" y="1251.5" width="1020" height="1093" stroke="#C55A11" stroke-width="9.16667" stroke-miterlimit="8" fill="#C55A11" fill-opacity="0.101961"/><text font-family="Arial,Arial_MSFontService,sans-serif" font-weight="700" font-size="41" transform="matrix(1 0 0 1 3322.33 1307)">Logical Evaluation</text><rect x="130.5" y="1343.5" width="902" height="558" stroke="#6893A0" stroke-width="4.58333" stroke-miterlimit="8" stroke-dasharray="18.3333 13.75" fill="#6893A0" fill-opacity="0"/><text font-family="Arial,Arial_MSFontService,sans-serif" font-weight="700" font-size="41" transform="matrix(1 0 0 1 163.169 1400)">LLM Prompt</text><text font-family="Arial,Arial_MSFontService,sans-serif" font-weight="400" font-size="41" transform="matrix(1 0 0 1 163.169 1477)">You are a classifier designed to …</text><text font-family="Arial,Arial_MSFontService,sans-serif" font-weight="400" font-size="41" transform="matrix(1 0 0 1 163.169 1527)">1.    Task type details: The available task </text><text font-family="Arial,Arial_MSFontService,sans-serif" font-weight="400" font-size="41" transform="matrix(1 0 0 1 163.169 1576)">types are … explained as follows …</text><text font-family="Arial,Arial_MSFontService,sans-serif" font-weight="400" font-size="41" transform="matrix(1 0 0 1 163.169 1626)">2.    Determine if a “slice” action occurs …</text><text font-family="Arial,Arial_MSFontService,sans-serif" font-weight="400" font-size="41" transform="matrix(1 0 0 1 163.169 1675)">3.    Response example: </text><text font-family="Arial,Arial_MSFontService,sans-serif" font-weight="400" font-size="41" transform="matrix(1 0 0 1 163.169 1725)">Instruction: …  </text><text font-family="Arial,Arial_MSFontService,sans-serif" font-weight="400" font-size="41" transform="matrix(1 0 0 1 163.169 1774)">Predicted result: </text><text font-family="Arial,Arial_MSFontService,sans-serif" font-weight="400" font-size="41" transform="matrix(1 0 0 1 163.169 1824)">(TASK TYPE: …, IS_SLICED: …)</text><rect x="130.5" y="1932.5" width="902" height="363" stroke="#6893A0" stroke-width="4.58333" stroke-miterlimit="8" stroke-dasharray="18.3333 13.75" fill="#6893A0" fill-opacity="0"/><text font-family="Arial,Arial_MSFontService,sans-serif" font-weight="700" font-size="41" transform="matrix(1 0 0 1 163.168 1988)">Task Information List</text><text font-family="Arial,Arial_MSFontService,sans-serif" font-weight="400" font-size="41" transform="matrix(1 0 0 1 163.168 2038)">Pick &amp; Place: …</text><text font-family="Arial,Arial_MSFontService,sans-serif" font-weight="400" font-size="41" transform="matrix(1 0 0 1 163.168 2087)">…</text><text font-family="Arial,Arial_MSFontService,sans-serif" font-weight="400" font-size="41" transform="matrix(1 0 0 1 163.168 2159)">Clean &amp; Place:</text><text font-family="Arial,Arial_MSFontService,sans-serif" font-weight="400" font-size="41" transform="matrix(1 0 0 1 163.168 2208)">This task is about … you will pick up … </text><text font-family="Arial,Arial_MSFontService,sans-serif" font-weight="400" font-size="41" transform="matrix(1 0 0 1 163.168 2258)">open the faucet to wash the object … </text><rect x="1203.5" y="1343.5" width="901" height="952" stroke="#2E75B6" stroke-width="4.58333" stroke-miterlimit="8" stroke-dasharray="18.3333 13.75" fill="#2E75B6" fill-opacity="0"/><text font-family="Arial,Arial_MSFontService,sans-serif" font-weight="700" font-size="41" transform="matrix(1 0 0 1 1235.82 1400)">LLM Prompt</text><text font-family="Arial,Arial_MSFontService,sans-serif" font-weight="400" font-size="41" transform="matrix(1 0 0 1 1235.82 1477)">You are an outstanding task planner capable </text><text font-family="Arial,Arial_MSFontService,sans-serif" font-weight="400" font-size="41" transform="matrix(1 0 0 1 1235.82 1527)">of … task plan for a robot …</text><text font-family="Arial,Arial_MSFontService,sans-serif" font-weight="400" font-size="41" transform="matrix(1 0 0 1 1235.82 1576)">1.    Executable primitive actions …</text><text font-family="Arial,Arial_MSFontService,sans-serif" font-weight="400" font-size="41" transform="matrix(1 0 0 1 1235.82 1626)">[ pick up, put, toggle on, … ]</text><text font-family="Arial,Arial_MSFontService,sans-serif" font-weight="400" font-size="41" transform="matrix(1 0 0 1 1235.82 1675)">2.    General rules and constraints to follow: </text><text font-family="Arial,Arial_MSFontService,sans-serif" font-weight="400" font-size="41" transform="matrix(1 0 0 1 1235.82 1725)">…</text><text font-family="Arial,Arial_MSFontService,sans-serif" font-weight="400" font-size="41" transform="matrix(1 0 0 1 1235.82 1774)">3.    Task planning response example:</text><text font-family="Arial,Arial_MSFontService,sans-serif" font-weight="400" font-size="41" transform="matrix(1 0 0 1 1235.82 1824)">Instruction: …</text><text font-family="Arial,Arial_MSFontService,sans-serif" font-weight="400" font-size="41" transform="matrix(1 0 0 1 1235.82 1873)">Language</text><text font-family="Arial,Arial_MSFontService,sans-serif" font-weight="400" font-size="41" transform="matrix(1 0 0 1 1419.16 1873)">-</text><text font-family="Arial,Arial_MSFontService,sans-serif" font-weight="400" font-size="41" transform="matrix(1 0 0 1 1432.91 1873)">based task plan:</text><text font-family="Arial,Arial_MSFontService,sans-serif" font-weight="400" font-size="41" transform="matrix(1 0 0 1 1235.82 1923)">Step 1. ... (TARGET: …, DESCRIPTION: …)</text><text font-family="Arial,Arial_MSFontService,sans-serif" font-weight="400" font-size="41" transform="matrix(1 0 0 1 1235.82 1972)">Step 2. … (…)</text><text font-family="Arial,Arial_MSFontService,sans-serif" font-weight="400" font-size="41" transform="matrix(1 0 0 1 1235.82 2071)">Below is an instruction  … complete the </text><text font-family="Arial,Arial_MSFontService,sans-serif" font-weight="400" font-size="41" transform="matrix(1 0 0 1 1235.82 2125)">request. Task information: </text><text fill="#7030A0" font-family="Cambria Math,Cambria Math_MSFontService,sans-serif" font-weight="400" font-size="46" transform="matrix(1 0 0 1 1723.95 2125)">{</text><text fill="#7030A0" font-family="Cambria Math,Cambria Math_MSFontService,sans-serif" font-weight="400" font-size="46" transform="matrix(1 0 0 1 1741.71 2125)">𝑻</text><text fill="#7030A0" font-family="Cambria Math,Cambria Math_MSFontService,sans-serif" font-weight="400" font-size="34" transform="matrix(1 0 0 1 1770.35 2134)">𝑰</text><text fill="#7030A0" font-family="Cambria Math,Cambria Math_MSFontService,sans-serif" font-weight="400" font-size="46" transform="matrix(1 0 0 1 1786.58 2125)">}</text><text font-family="Arial,Arial_MSFontService,sans-serif" font-weight="400" font-size="41" transform="matrix(1 0 0 1 1235.82 2180)">Instruction: </text><text fill="#7030A0" font-family="Cambria Math,Cambria Math_MSFontService,sans-serif" font-weight="400" font-size="46" transform="matrix(1 0 0 1 1448.95 2180)">{</text><text fill="#7030A0" font-family="Cambria Math,Cambria Math_MSFontService,sans-serif" font-weight="400" font-size="46" transform="matrix(1 0 0 1 1466.71 2180)">𝐈</text><text fill="#7030A0" font-family="Cambria Math,Cambria Math_MSFontService,sans-serif" font-weight="400" font-size="46" transform="matrix(1 0 0 1 1483.32 2180)">}</text><text fill="#7030A0" font-family="Cambria Math,Cambria Math_MSFontService,sans-serif" font-weight="400" font-size="46" transform="matrix(1 0 0 1 1501.08 2180)"> </text><text font-family="Arial,Arial_MSFontService,sans-serif" font-weight="400" font-size="41" transform="matrix(1 0 0 1 1235.82 2231)">Language</text><text font-family="Arial,Arial_MSFontService,sans-serif" font-weight="400" font-size="41" transform="matrix(1 0 0 1 1419.16 2231)">-</text><text font-family="Arial,Arial_MSFontService,sans-serif" font-weight="400" font-size="41" transform="matrix(1 0 0 1 1432.91 2231)">based task plan: </text><text fill="#7030A0" font-family="Arial,Arial_MSFontService,sans-serif" font-weight="400" font-size="41" transform="matrix(1 0 0 1 1235.82 2280)">(TO BE COMPLETE)</text><rect x="2276.5" y="1343.5" width="901" height="952" stroke="#548235" stroke-width="4.58333" stroke-miterlimit="8" stroke-dasharray="18.3333 13.75" fill="#548235" fill-opacity="0"/><text font-family="Arial,Arial_MSFontService,sans-serif" font-weight="700" font-size="41" transform="matrix(1 0 0 1 2308.63 1400)">LLM Prompt</text><text font-family="Arial,Arial_MSFontService,sans-serif" font-weight="400" font-size="41" transform="matrix(1 0 0 1 2308.63 1477)">You are a robotic symbolic task planner …</text><text font-family="Arial,Arial_MSFontService,sans-serif" font-weight="400" font-size="41" transform="matrix(1 0 0 1 2308.63 1576)">1.</text><text font-family="Arial,Arial_MSFontService,sans-serif" font-weight="400" font-size="41" transform="matrix(1 0 0 1 2391.13 1576)">Symbolic actions: </text><text font-family="Arial,Arial_MSFontService,sans-serif" font-weight="400" font-size="41" transform="matrix(1 0 0 1 2308.63 1626)">The available symbolic actions are …</text><text font-family="Arial,Arial_MSFontService,sans-serif" font-weight="400" font-size="41" transform="matrix(1 0 0 1 2308.63 1675)">1.1. </text><text font-family="Arial,Arial_MSFontService,sans-serif" font-weight="400" font-size="41" transform="matrix(1 0 0 1 2388.84 1675)">pick_up</text><text font-family="Arial,Arial_MSFontService,sans-serif" font-weight="400" font-size="41" transform="matrix(1 0 0 1 2530.92 1675)">(…): This function represents …</text><text font-family="Arial,Arial_MSFontService,sans-serif" font-weight="400" font-size="41" transform="matrix(1 0 0 1 2308.63 1725)">…</text><text font-family="Arial,Arial_MSFontService,sans-serif" font-weight="400" font-size="41" transform="matrix(1 0 0 1 2308.63 1774)">2.</text><text font-family="Arial,Arial_MSFontService,sans-serif" font-weight="400" font-size="41" transform="matrix(1 0 0 1 2391.13 1774)">Response format: …</text><text font-family="Arial,Arial_MSFontService,sans-serif" font-weight="400" font-size="41" transform="matrix(1 0 0 1 2308.63 1824)">3.</text><text font-family="Arial,Arial_MSFontService,sans-serif" font-weight="400" font-size="41" transform="matrix(1 0 0 1 2391.13 1824)">Response example:</text><text font-family="Arial,Arial_MSFontService,sans-serif" font-weight="400" font-size="41" transform="matrix(1 0 0 1 2308.63 1873)">Language</text><text font-family="Arial,Arial_MSFontService,sans-serif" font-weight="400" font-size="41" transform="matrix(1 0 0 1 2491.97 1873)">-</text><text font-family="Arial,Arial_MSFontService,sans-serif" font-weight="400" font-size="41" transform="matrix(1 0 0 1 2505.72 1873)">based task plan:</text><text font-family="Arial,Arial_MSFontService,sans-serif" font-weight="400" font-size="41" transform="matrix(1 0 0 1 2308.63 1923)">Step 1. … (TARGET: …, DESCRIPTION: …)</text><text font-family="Arial,Arial_MSFontService,sans-serif" font-weight="400" font-size="41" transform="matrix(1 0 0 1 2308.63 1972)">Step 2. … (…)</text><text font-family="Arial,Arial_MSFontService,sans-serif" font-weight="400" font-size="41" transform="matrix(1 0 0 1 2308.63 2022)">Symbolic task plan: [</text><text font-family="Arial,Arial_MSFontService,sans-serif" font-weight="400" font-size="41" transform="matrix(1 0 0 1 2686.76 2022)">go_to</text><text font-family="Arial,Arial_MSFontService,sans-serif" font-weight="400" font-size="41" transform="matrix(1 0 0 1 2789.88 2022)">(…), open(…), … ]</text><text font-family="Arial,Arial_MSFontService,sans-serif" font-weight="400" font-size="41" transform="matrix(1 0 0 1 2308.63 2121)">Below is … complete the request.</text><text font-family="Arial,Arial_MSFontService,sans-serif" font-weight="400" font-size="41" transform="matrix(1 0 0 1 2308.63 2175)">Language</text><text font-family="Arial,Arial_MSFontService,sans-serif" font-weight="400" font-size="41" transform="matrix(1 0 0 1 2491.97 2175)">-</text><text font-family="Arial,Arial_MSFontService,sans-serif" font-weight="400" font-size="41" transform="matrix(1 0 0 1 2505.72 2175)">based task plan: </text><text fill="#7030A0" font-family="Cambria Math,Cambria Math_MSFontService,sans-serif" font-weight="400" font-size="46" transform="matrix(1 0 0 1 2817.38 2175)">{</text><text fill="#7030A0" font-family="Cambria Math,Cambria Math_MSFontService,sans-serif" font-weight="400" font-size="46" transform="matrix(1 0 0 1 2835.14 2175)">𝑻</text><text fill="#7030A0" font-family="Cambria Math,Cambria Math_MSFontService,sans-serif" font-weight="400" font-size="34" transform="matrix(1 0 0 1 2863.79 2184)">𝑳</text><text fill="#7030A0" font-family="Cambria Math,Cambria Math_MSFontService,sans-serif" font-weight="400" font-size="46" transform="matrix(1 0 0 1 2884.6 2175)">}</text><text font-family="Arial,Arial_MSFontService,sans-serif" font-weight="400" font-size="41" transform="matrix(1 0 0 1 2308.63 2225)">Symbolic task plan: </text><text fill="#7030A0" font-family="Arial,Arial_MSFontService,sans-serif" font-weight="400" font-size="41" transform="matrix(1 0 0 1 2308.63 2275)">(TO BE COMPLETE)</text><rect x="3348.5" y="1343.5" width="902" height="467" stroke="#C55A11" stroke-width="4.58333" stroke-miterlimit="8" stroke-dasharray="18.3333 13.75" fill="#C55A11" fill-opacity="0"/><text font-family="Arial,Arial_MSFontService,sans-serif" font-weight="700" font-size="41" transform="matrix(1 0 0 1 3381.44 1400)">Code</text><text font-family="Arial,Arial_MSFontService,sans-serif" font-weight="700" font-size="41" transform="matrix(1 0 0 1 3484.57 1400)">-</text><text font-family="Arial,Arial_MSFontService,sans-serif" font-weight="700" font-size="41" transform="matrix(1 0 0 1 3498.32 1400)">Based Evaluation Rules</text><text font-family="Arial,Arial_MSFontService,sans-serif" font-weight="400" font-size="41" transform="matrix(1 0 0 1 3381.44 1477)">1.</text><text font-family="Arial,Arial_MSFontService,sans-serif" font-weight="400" font-size="41" transform="matrix(1 0 0 1 3463.94 1477)">Complete the open</text><text font-family="Arial,Arial_MSFontService,sans-serif" font-weight="400" font-size="41" transform="matrix(1 0 0 1 3812.28 1477)">-</text><text font-family="Arial,Arial_MSFontService,sans-serif" font-weight="400" font-size="41" transform="matrix(1 0 0 1 3826.03 1477)">interact</text><text font-family="Arial,Arial_MSFontService,sans-serif" font-weight="400" font-size="41" transform="matrix(1 0 0 1 3961.23 1477)">-</text><text font-family="Arial,Arial_MSFontService,sans-serif" font-weight="400" font-size="41" transform="matrix(1 0 0 1 3974.98 1477)">close action </text><text font-family="Arial,Arial_MSFontService,sans-serif" font-weight="400" font-size="41" transform="matrix(1 0 0 1 3463.94 1527)">sequence while interacting with openable </text><text font-family="Arial,Arial_MSFontService,sans-serif" font-weight="400" font-size="41" transform="matrix(1 0 0 1 3463.94 1576)">receptacles.</text><text font-family="Arial,Arial_MSFontService,sans-serif" font-weight="400" font-size="41" transform="matrix(1 0 0 1 3381.44 1626)">2.</text><text font-family="Arial,Arial_MSFontService,sans-serif" font-weight="400" font-size="41" transform="matrix(1 0 0 1 3463.94 1626)">A toggle on/off action must be applied to </text><text font-family="Arial,Arial_MSFontService,sans-serif" font-weight="400" font-size="41" transform="matrix(1 0 0 1 3463.94 1675)">a switchable object …</text><text font-family="Arial,Arial_MSFontService,sans-serif" font-weight="400" font-size="41" transform="matrix(1 0 0 1 3381.44 1725)">3.</text><text font-family="Arial,Arial_MSFontService,sans-serif" font-weight="400" font-size="41" transform="matrix(1 0 0 1 3463.94 1725)">…</text><rect x="3348.5" y="1844.5" width="902" height="451" stroke="#C55A11" stroke-width="4.58333" stroke-miterlimit="8" stroke-dasharray="18.3333 13.75" fill="#C55A11" fill-opacity="0"/><text font-family="Arial,Arial_MSFontService,sans-serif" font-weight="700" font-size="41" transform="matrix(1 0 0 1 3381.44 1900)">LLM</text><text font-family="Arial,Arial_MSFontService,sans-serif" font-weight="700" font-size="41" transform="matrix(1 0 0 1 3466.23 1900)">-</text><text font-family="Arial,Arial_MSFontService,sans-serif" font-weight="700" font-size="41" transform="matrix(1 0 0 1 3479.98 1900)">Based Evaluation Rules</text><text font-family="Arial,Arial_MSFontService,sans-serif" font-weight="400" font-size="41" transform="matrix(1 0 0 1 3381.44 1999)">1.</text><text font-family="Arial,Arial_MSFontService,sans-serif" font-weight="400" font-size="41" transform="matrix(1 0 0 1 3463.94 1999)">The target object must be in the robot’s </text><text font-family="Arial,Arial_MSFontService,sans-serif" font-weight="400" font-size="41" transform="matrix(1 0 0 1 3463.94 2049)">operable object list in the close</text><text font-family="Arial,Arial_MSFontService,sans-serif" font-weight="400" font-size="41" transform="matrix(1 0 0 1 4027.69 2049)">-</text><text font-family="Arial,Arial_MSFontService,sans-serif" font-weight="400" font-size="41" transform="matrix(1 0 0 1 4041.44 2049)">set </text><text font-family="Arial,Arial_MSFontService,sans-serif" font-weight="400" font-size="41" transform="matrix(1 0 0 1 3463.94 2098)">manipulation scenario.</text><text font-family="Arial,Arial_MSFontService,sans-serif" font-weight="400" font-size="41" transform="matrix(1 0 0 1 3381.44 2148)">2.</text><text font-family="Arial,Arial_MSFontService,sans-serif" font-weight="400" font-size="41" transform="matrix(1 0 0 1 3463.94 2148)">The symbolic action should be in the </text><text font-family="Arial,Arial_MSFontService,sans-serif" font-weight="400" font-size="41" transform="matrix(1 0 0 1 3463.94 2197)">robot’s primitive action set …</text><text font-family="Arial,Arial_MSFontService,sans-serif" font-weight="400" font-size="41" transform="matrix(1 0 0 1 3381.44 2247)">3.</text><text font-family="Arial,Arial_MSFontService,sans-serif" font-weight="400" font-size="41" transform="matrix(1 0 0 1 3463.94 2247)">…</text><rect x="1590.5" y="506.5" width="498" height="179" stroke="#6893A0" stroke-width="4.58333" stroke-miterlimit="8" stroke-dasharray="18.3333 13.75" fill="#6893A0" fill-opacity="0.4"/><text fill="#FFFFFF" font-family="Arial,Arial_MSFontService,sans-serif" font-weight="700" font-size="46" transform="matrix(1 0 0 1 1703.49 577)">Pick &amp; Place</text><text fill="#FFFFFF" font-family="Arial,Arial_MSFontService,sans-serif" font-weight="400" font-size="46" transform="matrix(1 0 0 1 1623.01 649)">Task Info: …</text><text fill="#A5A5A5" font-family="Arial,Arial_MSFontService,sans-serif" font-weight="700" font-size="83" transform="matrix(1 0 0 1 1797.73 855)">…</text><rect x="1590.5" y="902.5" width="498" height="180" stroke="#6893A0" stroke-width="4.58333" stroke-miterlimit="8" fill="#6893A0" fill-opacity="0.6"/><text fill="#FFFFFF" font-family="Arial,Arial_MSFontService,sans-serif" font-weight="700" font-size="46" transform="matrix(1 0 0 1 1688.03 973)">Clean &amp; Place</text><text fill="#FFFFFF" font-family="Arial,Arial_MSFontService,sans-serif" font-weight="400" font-size="46" transform="matrix(1 0 0 1 1623.01 1045)">Task Info: …</text><rect x="1590.5" y="714.5" width="498" height="89.9997" stroke="#6893A0" stroke-width="4.58333" stroke-miterlimit="8" stroke-dasharray="18.3333 13.75" fill="#6893A0" fill-opacity="0.4"/><text fill="#FFFFFF" font-family="Arial,Arial_MSFontService,sans-serif" font-weight="700" font-size="46" transform="matrix(1 0 0 1 1816.06 776)">…</text><path d="M0.0774087-2.29036 7.16383-2.05086 14.2662-1.34564 18.607-0.63921 17.8708 3.88461 13.6005 3.18966 13.7422 3.20821 6.78532 2.51743 6.93434 2.52734-0.0774087 2.29036ZM32.2831 2.68277 40.9542 5.47488 46.9806 8.05204 49.6843 9.42373 47.6105 13.5111 44.9737 12.1733 45.1095 12.2367 39.2496 9.73079 39.4483 9.80507 30.8783 7.0455ZM61.6763 16.7811 62.4784 17.3517 66.6408 20.9082 70.2108 24.6605 73.1282 28.5945 74.4752 31.1123 70.4338 33.2744 69.1664 30.9052 69.3464 31.1893 66.613 27.5035 66.7934 27.718 63.4018 24.1532 63.5734 24.3159 59.5784 20.9024 59.7387 21.0275 59.0196 20.5159ZM77.6018 44.7802 78.7501 48.2983 78.5923 47.9284 80.6126 51.705 80.4326 51.4209 83.166 55.1067 82.9856 54.8921 86.3772 58.4569 86.2056 58.2943 86.8445 58.8402 83.8671 62.3247 83.1382 61.7019 79.5682 57.9496 76.6508 54.0156 74.4557 49.9124 73.2447 46.2023ZM97.6585 66.6501 99.4709 67.7368 99.3293 67.6586 104.805 70.4368 104.669 70.3734 110.529 72.8793 110.331 72.805 113.859 73.9411 112.454 78.3038 108.825 77.1352 102.798 74.5581 97.1834 71.7093 95.3015 70.581ZM126.71 77.3371 127.35 77.4221 126.747 81.9655 126.107 81.8805ZM124.252 65.4723 149.779 82.6101 120.753 92.7487Z" fill="#6893A0" transform="matrix(1 0 0 -1 1440.5 842.11)"/><path d="M2088.5 759.5C2125.95 759.5 2163.39 779.9 2163.39 800.299 2163.39 820.699 2200.83 841.099 2238.28 841.099" stroke="#6893A0" stroke-width="4.58333" stroke-miterlimit="8" stroke-dasharray="18.3333 13.75" fill="none" fill-rule="evenodd"/><path d="M1177.63 996.5C1177.63 1060.29 1028.6 1124.08 879.564 1124.08 730.532 1124.08 581.5 1187.87 581.5 1251.66" stroke="#B3C9CF" stroke-width="4.58333" stroke-miterlimit="8" stroke-dasharray="18.3333 13.75" fill="none" fill-rule="evenodd"/><path d="M2501.83 995.5C2501.83 1059.54 2290 1123.59 2078.17 1123.59 1866.33 1123.59 1654.5 1187.63 1654.5 1251.67" stroke="#82ACD3" stroke-width="4.58333" stroke-miterlimit="8" stroke-dasharray="18.3333 13.75" fill="none" fill-rule="evenodd"/><path d="M3177.33 996.5C3177.33 1060.29 3064.62 1124.08 2951.91 1124.08 2839.21 1124.08 2726.5 1187.87 2726.5 1251.66" stroke="#98B486" stroke-width="4.58333" stroke-miterlimit="8" stroke-dasharray="18.3333 13.75" fill="none" fill-rule="evenodd"/><rect x="152.5" y="2113.5" width="792" height="159" stroke="#7030A0" stroke-width="4.58333" stroke-miterlimit="8" stroke-dasharray="18.3333 13.75" fill="#4472C4" fill-opacity="0"/><path d="M4048.22 994.5C4048.22 1058.66 3986.04 1122.82 3923.86 1122.82 3861.68 1122.82 3799.5 1186.98 3799.5 1251.14" stroke="#DC9C70" stroke-width="4.58333" stroke-miterlimit="8" stroke-dasharray="18.3333 13.75" fill="none" fill-rule="evenodd"/><path d="M0-2.29167 126.182-2.29167 126.182 81.278 123.89 78.9864 224.864 78.9864 224.864 83.5697 121.599 83.5697 121.599 0 123.89 2.29167 0 2.29167ZM220.281 67.528 247.781 81.278 220.281 95.028Z" fill="#7030A0" transform="matrix(1 0 0 -1 944.5 2192.78)"/><text fill="#7030A0" font-family="Cambria Math,Cambria Math_MSFontService,sans-serif" font-weight="400" font-size="46" transform="matrix(1 0 0 1 976.657 2167)">𝑻</text><text fill="#7030A0" font-family="Cambria Math,Cambria Math_MSFontService,sans-serif" font-weight="400" font-size="34" transform="matrix(1 0 0 1 1005.3 2176)">𝑰</text><path d="M3479.5 654.5C3493.03 654.5 3504 688.177 3504 729.72L3504 765.78C3504 807.323 3514.97 841 3528.5 841 3514.97 841 3504 874.677 3504 916.22L3504 952.28C3504 993.823 3493.03 1027.5 3479.5 1027.5" stroke="#AFABAB" stroke-width="6.875" stroke-miterlimit="8" fill="none" fill-rule="evenodd"/><path d="M3741.48 690.5 3733.95 679.389 3739.98 679.389C3732.23 651.035 3696.32 630.5 3654.49 630.5L3654.49 630.5C3696.32 630.5 3732.23 651.035 3739.97 679.389L3746 679.389Z" fill="#C55A11" fill-rule="evenodd"/><path d="M3654.49 630.5C3606.45 630.5 3567.5 657.363 3567.5 690.5L3567.5 690.5C3567.5 657.363 3606.45 630.5 3654.49 630.5Z" fill="#9E480E" fill-rule="evenodd"/><path d="M3654.49 630.5C3606.45 630.5 3567.5 657.363 3567.5 690.5L3567.5 690.5C3567.5 657.363 3606.45 630.5 3654.49 630.5L3654.49 630.5C3696.32 630.5 3732.23 651.035 3739.97 679.389L3746 679.389 3741.48 690.5 3733.95 679.389 3739.98 679.389C3732.23 651.035 3696.32 630.5 3654.49 630.5" stroke="#C55A11" stroke-width="4.58333" stroke-miterlimit="8" fill="none" fill-rule="evenodd"/><path d="M0-2.29167 316.822-2.29167 316.822 107.938 314.531 105.646 606.145 105.646 606.145 110.229 312.239 110.229 312.239 0 314.531 2.29167 0 2.29167ZM601.561 94.1875 629.061 107.938 601.561 121.688Z" fill="#7030A0" transform="matrix(1 0 0 -1 1638.5 2267.44)"/><text fill="#7030A0" font-family="Cambria Math,Cambria Math_MSFontService,sans-serif" font-weight="400" font-size="46" transform="matrix(1 0 0 1 1878 2240)">𝑻</text><text fill="#7030A0" font-family="Cambria Math,Cambria Math_MSFontService,sans-serif" font-weight="400" font-size="34" transform="matrix(1 0 0 1 1906.65 2249)">𝑳</text></g></svg>